<svg xmlns="http://www.w3.org/2000/svg" xml:space="preserve" id="Capa_1" x="0" y="0" version="1.1" viewBox="0 0 175.4 94.9"><style>.st0{fill:#00c4a8}.st1{fill:#6b6b78}</style><path d="M100.4 93.8H78.8v-2.3h21.6zM115.5 94.8h-3.2V65.9h3.2zM133.5 94.9c-1.4 0-2.6-.3-3.7-.8s-1.9-1.3-2.5-2.3-.9-2.1-.9-3.2c0-1.8.7-3.3 2.1-4.3q2.1-1.5 5.7-1.5h6.4v-1.2c0-1.5-.4-2.6-1.3-3.4q-1.35-1.2-3.9-1.2c-2.1 0-4.1.8-6.2 2.3l-.3.2-1.5-2.3.3-.2q2.1-1.5 3.9-2.1c1.2-.5 2.7-.7 4.3-.7 2.5 0 4.4.6 5.8 1.9s2.1 3 2.1 5.2v13.5h-3.2v-2.7c-.7.8-1.6 1.5-2.6 2-1.3.5-2.8.8-4.5.8m1.1-9.6c-1.7 0-3 .3-3.8.8q-1.2.75-1.2 2.4c0 1.1.4 2 1.2 2.6.8.7 1.9 1 3.3 1 1.7 0 3.2-.4 4.3-1.2s1.9-1.9 2.3-3.3v-2.4h-6.1zM165.5 94.9c-1.9 0-3.5-.4-5-1.3-1.1-.7-2-1.5-2.7-2.6v3.8h-3.2V65.9h3.2v12c.7-1 1.6-1.9 2.7-2.5 1.4-.9 3.1-1.3 4.9-1.3 1.9 0 3.6.4 5.1 1.3s2.7 2.1 3.5 3.7 1.3 3.4 1.3 5.4-.4 3.8-1.3 5.3c-.8 1.6-2 2.8-3.5 3.7-1.4.9-3.1 1.4-5 1.4M165 77c-1.4 0-2.6.3-3.7 1-1.1.6-1.9 1.5-2.5 2.7q-.9 1.65-.9 3.9t.9 3.9c.6 1.1 1.5 2 2.5 2.7 1.1.6 2.3 1 3.7 1s2.6-.3 3.7-1c1.1-.6 1.9-1.5 2.5-2.7.6-1.1.9-2.5.9-3.9q0-2.1-.9-3.9c-.6-1.1-1.5-2-2.5-2.7-1.1-.7-2.3-1-3.7-1" class="st0"/><path d="M31.7 52.2H0v-1.8l.1-.1 22.2-33.5h-7.6c-2.6 0-5.8 0-7.7 1.7-1.4 1.3-3.5 5.1-3.5 5.2l-.1.2H1.7v-9.5h29.9v1.7l-.1.2L9.9 49.8H20c2.3 0 5.2-.2 6.9-2.1 1.1-1.1 2.8-4.7 2.8-4.7l.1-.2h1.7v9.4zM58.1 52.9c-2 0-4-.3-6-1-3.8-1.2-7-3.4-9.3-6.4-2.9-3.8-4.4-9.2-3.8-14.5.4-4 2-7.8 4.3-10.8 3.2-3.9 8.1-6.3 13.1-6.5h.6c4.2 0 8.3 1.6 11.2 4.3 3.2 3 5.2 7.4 5.2 11.7v.7H47.2c-.2 2.9.1 5.8.8 8.4q1.2 4.35 3.9 6.9c2.7 2.6 7 3.7 10.6 2.6 3.4-1 6.5-3.7 8.3-7.2l.3-.6 1.1.5c.1 0 .1.1.2.1l.2.1c.1 0 .1.1.2.1l.5.3-.2.5c-1.8 4.6-5.7 8.4-10 9.8-1.6.7-3.3 1-5 1M47.4 27.8h18.5c.1-3-.9-6-2.8-8.1-2-2.2-4.9-3.3-7.5-2.7-2 .4-3.9 1.7-5.3 3.6-1.6 2.3-2.6 4.8-2.9 7.2M121.8 52.2H105v-1.8h1.4c.6-.1 1.3-.3 1.7-.8.9-.9 1.3-2.7 1.3-5.4v-19c0-3.4-1.1-7.4-5.6-7.4-5.8 0-9.7 5.4-10.2 6.2v20.2c0 2.8.4 4.5 1.3 5.4.5.6 1.3.9 2.2.9h.9v1.8H81.1v-1.8h.9c1 0 1.7-.3 2.2-.9.9-1 1.3-2.7 1.3-5.4v-19c.1-3.2-.3-5.2-1.3-6.2-.6-.7-1.4-1-2.4-1h-1v-1.7l10.8-1.7h1.8v5.3c3.2-3.5 7.9-5.8 12.2-5.9h.5c3.1 0 5.8 1.1 7.9 3.2 1.9 1.8 3 4.7 3.1 8.1v19.1c0 2.8.4 4.5 1.3 5.4.1.1.3.3.5.4.4.3.9.4 1.5.5h1.2v1.5zM147.3 52.2h-16.8v-1.8h.9c.9 0 1.7-.3 2.2-.9.9-1 1.3-2.7 1.3-5.4V24.2c0-2.7-.4-4.4-1.3-5.4-.6-.6-1.3-.9-2.2-.9h-1.2v-1.7l.6-.1 10.3-1.7h1.8v29.7c0 2.7.4 4.5 1.3 5.4.5.6 1.3.9 2.2.9h.9zm-9.2-43.1c-1.3 0-2.4-.5-3.4-1.3l-.1-.1a4.48 4.48 0 0 1 .1-6.4c.9-.9 2.1-1.3 3.4-1.3s2.4.4 3.4 1.3a4.5 4.5 0 0 1 0 6.5c-.9.9-2 1.3-3.4 1.3M166 52.9c-1.2 0-2.3-.3-3.2-.8-2.7-1.6-2.9-5.2-2.9-8.5V17.3h-5.7V15l.5-.1c1.8-.4 7.7-2.3 10.2-10.8l.1-.5h2.6v10.8h7.2v2.8h-7.1v26.7c0 2.2.1 4.5 1.2 5.4.6.5 1.4.5 2.4.2.3-.1.9-.3 1.6-.7l.7-.3.6 1.8-.5.3c-.6.3-1.3.6-2.3 1-1.3.5-3.3 1.3-5.4 1.3" class="st1"/></svg>